<svg xmlns="http://www.w3.org/2000/svg" viewBox="0 0 512 512">
  <defs>
    <linearGradient id="bg" x1="0%" y1="0%" x2="100%" y2="100%">
      <stop offset="0%" stop-color="#2a1813"/>
      <stop offset="100%" stop-color="#8d3210"/>
    </linearGradient>
    <linearGradient id="ring" x1="0%" y1="0%" x2="100%" y2="100%">
      <stop offset="0%" stop-color="#ffbd73"/>
      <stop offset="100%" stop-color="#f05a24"/>
    </linearGradient>
  </defs>
  <rect width="512" height="512" rx="112" fill="url(#bg)"/>
  <circle cx="256" cy="256" r="146" fill="#efe3d3" opacity=".96"/>
  <path
    d="M150 176c33-22 67-36 104-39 47-4 93 9 127 41-24 1-49 2-72 15-23 12-37 28-47 49-10 21-17 46-34 63-19 18-46 26-78 28-39 2-71-7-102-30 12-38 34-94 102-127Z"
    fill="#1b6e65"
    opacity=".92"
  />
  <path
    d="M344 140c42 18 76 56 93 108-11 33-30 64-60 93-27 26-61 44-101 53 19-17 36-42 42-73 7-31 3-61-6-86-8-26-18-49-16-95 16-3 31-3 48 0Z"
    fill="#15463f"
    opacity=".88"
  />
  <path
    d="M257 77c89 0 166 57 195 137l-51 20c-22-55-78-94-144-94-86 0-156 70-156 156 0 79 59 144 136 154l-8 56C125 496 45 386 45 256 45 157 111 77 257 77Z"
    fill="url(#ring)"
  />
  <path
    d="M332 170c20 17 34 41 36 70 2 31-10 60-29 81l-39-31c11-13 18-27 18-44 0-17-7-33-18-45l32-31Z"
    fill="#2a1813"
    opacity=".88"
  />
</svg>
